<svg width="219" height="49" viewBox="0 0 219 49" fill="none" xmlns="http://www.w3.org/2000/svg">
<path d="M16.5455 48H0.0454545V1.45454H16.6818C21.3636 1.45454 25.3939 2.38636 28.7727 4.25C32.1515 6.09848 34.75 8.75757 36.5682 12.2273C38.4015 15.697 39.3182 19.8485 39.3182 24.6818C39.3182 29.5303 38.4015 33.697 36.5682 37.1818C34.75 40.6667 32.1364 43.3409 28.7273 45.2045C25.3333 47.0682 21.2727 48 16.5455 48ZM9.88636 39.5682H16.1364C19.0455 39.5682 21.4924 39.053 23.4773 38.0227C25.4773 36.9773 26.9773 35.3636 27.9773 33.1818C28.9924 30.9848 29.5 28.1515 29.5 24.6818C29.5 21.2424 28.9924 18.4318 27.9773 16.25C26.9773 14.0682 25.4848 12.4621 23.5 11.4318C21.5152 10.4015 19.0682 9.88636 16.1591 9.88636H9.88636V39.5682ZM52.0057 48H41.4602L57.5284 1.45454H70.2102L86.2557 48H75.7102L64.0511 12.0909H63.6875L52.0057 48ZM51.3466 29.7045H76.2557V37.3864H51.3466V29.7045Z" fill="#F6D55F"/>
<path d="M122.722 16.5C122.403 15.3939 121.956 14.4167 121.381 13.5682C120.805 12.7045 120.1 11.9773 119.267 11.3864C118.449 10.7803 117.509 10.3182 116.449 10C115.403 9.68182 114.244 9.52273 112.972 9.52273C110.593 9.52273 108.502 10.1136 106.699 11.2955C104.911 12.4773 103.517 14.197 102.517 16.4545C101.517 18.697 101.017 21.4394 101.017 24.6818C101.017 27.9242 101.509 30.6818 102.494 32.9545C103.479 35.2273 104.873 36.9621 106.676 38.1591C108.479 39.3409 110.608 39.9318 113.062 39.9318C115.29 39.9318 117.191 39.5379 118.767 38.75C120.358 37.947 121.57 36.8182 122.403 35.3636C123.252 33.9091 123.676 32.1894 123.676 30.2045L125.676 30.5H113.676V23.0909H133.153V28.9545C133.153 33.0455 132.29 36.5606 130.562 39.5C128.835 42.4242 126.456 44.6818 123.426 46.2727C120.396 47.8485 116.926 48.6364 113.017 48.6364C108.653 48.6364 104.82 47.6742 101.517 45.75C98.214 43.8106 95.6383 41.0606 93.7898 37.5C91.9564 33.9242 91.0398 29.6818 91.0398 24.7727C91.0398 21 91.5852 17.6364 92.6761 14.6818C93.7822 11.7121 95.3277 9.19697 97.3125 7.13636C99.2973 5.07576 101.608 3.50757 104.244 2.43182C106.881 1.35606 109.737 0.81818 112.812 0.81818C115.449 0.81818 117.903 1.20454 120.176 1.97727C122.449 2.73485 124.464 3.81061 126.222 5.20454C127.994 6.59848 129.441 8.25757 130.562 10.1818C131.684 12.0909 132.403 14.197 132.722 16.5H122.722ZM140.545 48V1.45454H171.909V9.56818H150.386V20.6591H170.295V28.7727H150.386V39.8864H172V48H140.545ZM218.665 1.45454V48H210.165L189.915 18.7045H189.574V48H179.733V1.45454H188.369L208.46 30.7273H208.869V1.45454H218.665Z" fill="black"/>
</svg>
