<svg width="447" height="447" viewBox="0 0 447 447" fill="none" xmlns="http://www.w3.org/2000/svg">
<path d="M176.552 353.103C79.2006 353.103 0 273.902 0 176.551C0 79.2013 79.2006 0 176.552 0C273.903 0 353.104 79.2013 353.104 176.551C353.104 273.902 273.903 353.103 176.552 353.103ZM176.552 35.3103C98.6746 35.3103 35.3103 98.6743 35.3103 176.551C35.3103 254.428 98.6746 317.793 176.552 317.793C254.429 317.793 317.793 254.428 317.793 176.551C317.793 98.6743 254.447 35.3103 176.552 35.3103Z" fill="#F6D55F"/>
<path d="M428.879 446.267C426.56 446.27 424.263 445.814 422.121 444.926C419.979 444.038 418.034 442.736 416.396 441.094L280.557 305.255C278.918 303.616 277.618 301.67 276.731 299.528C275.844 297.387 275.387 295.091 275.387 292.773C275.387 290.455 275.844 288.159 276.731 286.018C277.618 283.876 278.918 281.93 280.557 280.291C282.197 278.652 284.143 277.351 286.284 276.464C288.426 275.577 290.721 275.121 293.04 275.121C295.358 275.121 297.653 275.577 299.795 276.464C301.937 277.351 303.883 278.652 305.522 280.291L441.361 416.13C443.838 418.596 445.526 421.742 446.212 425.169C446.898 428.596 446.55 432.15 445.213 435.379C443.875 438.608 441.609 441.367 438.7 443.305C435.792 445.244 432.374 446.275 428.879 446.267Z" fill="#F6D55F"/>
</svg>
