<svg width="500" height="438" viewBox="0 0 500 438" fill="none" xmlns="http://www.w3.org/2000/svg">
<path d="M328.125 218.75H406.25V281.25C406.25 315.723 378.223 343.75 343.75 343.75H335.938C332.858 343.743 329.807 344.344 326.96 345.519C324.113 346.694 321.526 348.42 319.348 350.598C317.17 352.776 315.444 355.363 314.269 358.21C313.094 361.057 312.493 364.108 312.5 367.188V414.063C312.493 417.143 313.094 420.194 314.269 423.041C315.444 425.888 317.17 428.475 319.348 430.653C321.526 432.831 324.113 434.557 326.96 435.732C329.807 436.907 332.858 437.508 335.938 437.501H343.75C430.078 437.501 500 367.579 500 281.251V46.875C500 20.996 479.004 0 453.125 0H328.125C302.246 0 281.25 20.996 281.25 46.875V171.875C281.25 197.754 302.246 218.75 328.125 218.75ZM46.875 218.75H125V281.25C125 315.723 96.973 343.75 62.5 343.75H54.688C51.608 343.743 48.5569 344.344 45.7099 345.519C42.863 346.694 40.2763 348.42 38.0984 350.598C35.9205 352.776 34.1943 355.363 33.0191 358.21C31.8438 361.057 31.2426 364.108 31.25 367.188V414.063C31.2426 417.143 31.8438 420.194 33.0191 423.041C34.1943 425.888 35.9205 428.475 38.0984 430.653C40.2763 432.831 42.863 434.557 45.7099 435.732C48.5569 436.907 51.608 437.508 54.688 437.501H62.5C148.828 437.501 218.75 367.579 218.75 281.251V46.875C218.75 20.996 197.754 0 171.875 0H46.875C20.996 0 0 20.996 0 46.875V171.875C0 197.754 20.996 218.75 46.875 218.75Z" fill="#F6D55F"/>
</svg>
