<svg width="20" height="20" viewBox="0 0 20 20" fill="none" xmlns="http://www.w3.org/2000/svg">
<path d="M20 19.557V12.162C20 8.19953 17.885 6.35578 15.065 6.35578C12.7894 6.35578 11.7694 7.60766 11.2013 8.48641V6.65891H6.91375C6.97063 7.86953 6.91375 19.557 6.91375 19.557H11.2013V12.3539C11.2013 11.9695 11.2288 11.5839 11.3425 11.3089C11.6519 10.5383 12.3575 9.74078 13.5413 9.74078C15.0931 9.74078 15.7131 10.9233 15.7131 12.657V19.5577L20 19.557ZM2.39688 4.89828C3.89125 4.89828 4.82313 3.90703 4.82313 2.66891C4.79563 1.40391 3.89187 0.441406 2.42563 0.441406C0.959375 0.441406 0 1.40328 0 2.66891C0 3.90703 0.930625 4.89828 2.37 4.89828H2.39688ZM4.54062 19.557V6.65891H0.25375V19.557H4.54062Z" fill="white"/>
</svg>
