<svg width="82" height="19" viewBox="0 0 82 19" fill="none" xmlns="http://www.w3.org/2000/svg">
<path d="M6.70455 18H0.517045V0.545454H6.75568C8.51136 0.545454 10.0227 0.894886 11.2898 1.59375C12.5568 2.28693 13.5313 3.28409 14.2131 4.58523C14.9006 5.88636 15.2443 7.44318 15.2443 9.25568C15.2443 11.0739 14.9006 12.6364 14.2131 13.9432C13.5313 15.25 12.5511 16.2528 11.2727 16.9517C10 17.6506 8.47727 18 6.70455 18ZM4.20739 14.8381H6.55114C7.64205 14.8381 8.55966 14.6449 9.30398 14.2585C10.054 13.8665 10.6165 13.2614 10.9915 12.4432C11.3722 11.6193 11.5625 10.5568 11.5625 9.25568C11.5625 7.96591 11.3722 6.91193 10.9915 6.09375C10.6165 5.27557 10.0568 4.6733 9.3125 4.28693C8.56818 3.90057 7.65057 3.70739 6.55966 3.70739H4.20739V14.8381ZM20.0021 18H16.0476L22.0732 0.545454H26.8288L32.8459 18H28.8913L24.5192 4.53409H24.3828L20.0021 18ZM19.755 11.1392H29.0959V14.0199H19.755V11.1392ZM45.7003 6.1875C45.581 5.77273 45.4134 5.40625 45.1974 5.08807C44.9815 4.7642 44.7173 4.49148 44.4048 4.26989C44.098 4.04261 43.7457 3.86932 43.348 3.75C42.956 3.63068 42.5213 3.57102 42.044 3.57102C41.152 3.57102 40.3679 3.79261 39.6918 4.23579C39.0213 4.67898 38.4986 5.32386 38.1236 6.17045C37.7486 7.01136 37.5611 8.03977 37.5611 9.25568C37.5611 10.4716 37.7457 11.5057 38.1151 12.358C38.4844 13.2102 39.0071 13.8608 39.6832 14.3097C40.3594 14.7528 41.1577 14.9744 42.0781 14.9744C42.9134 14.9744 43.6264 14.8267 44.2173 14.5312C44.8139 14.2301 45.2685 13.8068 45.581 13.2614C45.8991 12.7159 46.0582 12.071 46.0582 11.3267L46.8082 11.4375H42.3082V8.65909H49.6122V10.858C49.6122 12.392 49.2884 13.7102 48.6406 14.8125C47.9929 15.9091 47.1009 16.7557 45.9645 17.3523C44.8281 17.9432 43.527 18.2386 42.0611 18.2386C40.4247 18.2386 38.9872 17.8778 37.7486 17.1562C36.5099 16.429 35.544 15.3977 34.8509 14.0625C34.1634 12.7216 33.8196 11.1307 33.8196 9.28977C33.8196 7.875 34.0241 6.61364 34.4332 5.50568C34.848 4.39205 35.4276 3.44886 36.1719 2.67614C36.9162 1.90341 37.7827 1.31534 38.7713 0.911931C39.7599 0.508522 40.831 0.306818 41.9844 0.306818C42.973 0.306818 43.8935 0.451704 44.7457 0.741477C45.598 1.02557 46.3537 1.42898 47.0128 1.9517C47.6776 2.47443 48.2202 3.09659 48.6406 3.81818C49.0611 4.53409 49.331 5.32386 49.4503 6.1875H45.7003ZM52.3842 18V0.545454H64.1456V3.58807H56.0746V7.74716H63.5405V10.7898H56.0746V14.9574H64.1797V18H52.3842ZM81.679 0.545454V18H78.4915L70.8977 7.0142H70.7699V18H67.0795V0.545454H70.3182L77.8523 11.5227H78.0057V0.545454H81.679Z" fill="white"/>
</svg>
