<svg width="48" height="48" viewBox="0 0 48 48" fill="none" xmlns="http://www.w3.org/2000/svg">
<g clip-path="url(#clip0_170_99)">
<mask id="mask0_170_99" style="mask-type:luminance" maskUnits="userSpaceOnUse" x="0" y="0" width="48" height="48">
<path d="M0 0H47.5V47.5H0V0Z" fill="white"/>
</mask>
<g mask="url(#mask0_170_99)">
<path d="M43.7494 21.25H29.7856L39.6606 11.3762C39.8927 11.1441 40.0768 10.8684 40.2024 10.5651C40.328 10.2617 40.3926 9.93662 40.3926 9.60831C40.3925 9.27999 40.3278 8.95491 40.2021 8.65161C40.0764 8.34831 39.8922 8.07274 39.66 7.84062C39.4278 7.60851 39.1522 7.42441 38.8488 7.29882C38.5455 7.17324 38.2204 7.10863 37.8921 7.10868C37.5637 7.10874 37.2387 7.17347 36.9354 7.29916C36.6321 7.42485 36.3565 7.60906 36.1244 7.84125L26.2506 17.715V3.75C26.2506 3.08696 25.9872 2.45107 25.5184 1.98223C25.0496 1.51339 24.4137 1.25 23.7506 1.25C23.0876 1.25 22.4517 1.51339 21.9829 1.98223C21.514 2.45107 21.2506 3.08696 21.2506 3.75V17.7137L11.3769 7.84C10.9081 7.37106 10.2723 7.10755 9.60919 7.10743C8.94613 7.10732 8.31019 7.3706 7.84125 7.83937C7.37231 8.30814 7.1088 8.944 7.10869 9.60706C7.10857 10.2701 7.37185 10.9061 7.84063 11.375L17.7156 21.25H3.75063C3.08758 21.2498 2.45163 21.5131 1.98268 21.9818C1.51372 22.4505 1.25017 23.0863 1.25 23.7494C1.24983 24.4124 1.51307 25.0484 1.98179 25.5173C2.45051 25.9863 3.08633 26.2498 3.74938 26.25H17.7169L7.84063 36.125C7.37169 36.5938 7.10818 37.2296 7.10806 37.8927C7.10794 38.5557 7.37123 39.1917 7.84 39.6606C8.30877 40.1296 8.94463 40.3931 9.60768 40.3932C10.2707 40.3933 10.9067 40.13 11.3756 39.6613L21.2506 29.785V43.75C21.2506 44.413 21.514 45.0489 21.9829 45.5178C22.4517 45.9866 23.0876 46.25 23.7506 46.25C24.4137 46.25 25.0496 45.9866 25.5184 45.5178C25.9872 45.0489 26.2506 44.413 26.2506 43.75V29.785L36.1244 39.66C36.5933 40.1289 37.2293 40.3924 37.8925 40.3924C38.2209 40.3924 38.546 40.3277 38.8494 40.202C39.1528 40.0764 39.4284 39.8922 39.6606 39.66C39.8928 39.4278 40.077 39.1522 40.2027 38.8488C40.3283 38.5454 40.393 38.2202 40.393 37.8919C40.393 37.5635 40.3283 37.2383 40.2027 36.935C40.077 36.6316 39.8928 36.3559 39.6606 36.1238L29.7856 26.25H43.7494C44.4124 26.25 45.0483 25.9866 45.5171 25.5178C45.986 25.0489 46.2494 24.413 46.2494 23.75C46.2494 23.087 45.986 22.4511 45.5171 21.9822C45.0483 21.5134 44.4124 21.25 43.7494 21.25Z" fill="black"/>
</g>
</g>
<defs>
<clipPath id="clip0_170_99">
<rect width="47.5" height="47.5" fill="white"/>
</clipPath>
</defs>
</svg>
