<svg width="32" height="28" viewBox="0 0 32 28" fill="none" xmlns="http://www.w3.org/2000/svg">
<path d="M16.5867 3.41973L27.1667 13.9997L16.5867 24.5797C16.2111 24.9554 16 25.4649 16 25.9962C16 26.5275 16.2111 27.0371 16.5867 27.4127C16.9624 27.7884 17.4719 27.9995 18.0032 27.9995C18.5345 27.9995 19.0441 27.7884 19.4197 27.4127L31.4137 15.4197C31.7892 15.0425 31.9999 14.5319 31.9999 13.9997C31.9999 13.4675 31.7892 12.957 31.4137 12.5797L19.4197 0.586734C19.2337 0.400716 19.0129 0.253159 18.7698 0.152487C18.5268 0.0518152 18.2663 3.39484e-09 18.0032 0C17.7402 -3.39484e-09 17.4797 0.0518152 17.2366 0.152487C16.9936 0.253159 16.7728 0.400716 16.5867 0.586734C16.4007 0.772751 16.2532 0.993586 16.1525 1.23663C16.0518 1.47967 16 1.74017 16 2.00323C16 2.2663 16.0518 2.52679 16.1525 2.76984C16.2532 3.01288 16.4007 3.23372 16.5867 3.41973Z" fill="white"/>
<path d="M28 16H2C1.46957 16 0.960859 15.7893 0.585786 15.4142C0.210714 15.0391 0 14.5304 0 14C0 13.4696 0.210714 12.9609 0.585786 12.5858C0.960859 12.2107 1.46957 12 2 12H28V16Z" fill="white"/>
</svg>
