<svg width="518" height="518" viewBox="0 0 518 518" fill="none" xmlns="http://www.w3.org/2000/svg">
<g clip-path="url(#clip0_194_134)">
<rect width="512" height="512" transform="translate(5.53418 0.490234) rotate(0.564359)" fill="url(#paint0_linear_194_134)"/>
<rect width="2033" height="605" transform="translate(-241.276 -19.9414) rotate(0.564359)" fill="url(#paint1_linear_194_134)"/>
<path d="M435.537 144.62C422.049 150.499 407.746 154.468 393.072 156.407C408.427 147.256 419.804 133.06 425.093 116.452C410.662 125.021 394.808 131.148 378.219 134.565C366.889 123.141 351.936 115.652 335.708 113.273C319.48 110.894 302.893 113.759 288.549 121.419C274.206 129.079 262.916 141.1 256.452 155.598C249.988 170.095 248.714 186.249 252.83 201.525C223.329 200.552 194.366 193.624 167.823 181.193C141.279 168.761 117.749 151.102 98.7605 129.365C92.431 140.417 89.2227 152.871 89.4547 165.489C89.6389 177.207 92.8349 188.702 98.758 198.951C104.681 209.199 113.147 217.882 123.403 224.228C111.611 224.103 100.023 221.243 89.6234 215.891L89.6387 216.759C90.0176 233.176 96.2842 248.968 107.378 261.464C118.473 273.959 133.713 282.391 150.523 285.333C144.107 287.32 137.43 288.419 130.69 288.597C126.024 288.617 121.362 288.283 116.75 287.598C121.77 301.647 131.221 313.846 143.786 322.497C156.352 331.148 171.407 335.821 186.858 335.866C161.126 355.999 129.115 367.268 95.9295 367.875C89.8873 367.988 83.8434 367.734 77.834 367.114C112.09 387.615 151.775 398.162 192.107 397.486C219.945 397.329 247.467 391.843 273.066 381.346C298.665 370.85 321.827 355.553 341.2 336.352C360.573 317.15 375.768 294.427 385.898 269.51C396.027 244.593 400.889 217.982 400.197 191.231C400.145 188.277 400.09 185.149 400.034 182.022C414.039 171.632 426.053 158.976 435.537 144.62Z" fill="#008000"/>
<path d="M149.46 239.49L149.54 231.377L187.766 231.753L187.686 239.866L173.437 239.726L173.058 278.156L163.331 278.06L163.71 239.63L149.46 239.49ZM196.307 278.385L187.151 243.384L196.946 243.48L202.124 266.987L202.442 266.99L208.309 243.592L217.922 243.687L223.42 267.061L223.715 267.063L229.263 243.799L239.035 243.895L229.214 278.709L218.965 278.608L213.181 256.596L212.75 256.591L206.534 278.486L196.307 278.385ZM243.856 278.853L244.2 243.946L253.881 244.041L253.537 278.949L243.856 278.853ZM249.107 239.494C247.668 239.48 246.438 238.99 245.417 238.026C244.411 237.046 243.915 235.882 243.929 234.534C243.942 233.2 244.461 232.062 245.485 231.117C246.525 230.158 247.764 229.685 249.204 229.699C250.643 229.713 251.865 230.21 252.871 231.19C253.892 232.154 254.396 233.303 254.383 234.637C254.369 235.985 253.843 237.139 252.803 238.099C251.778 239.043 250.547 239.508 249.107 239.494ZM280.203 244.301L280.132 251.573L259.11 251.366L259.182 244.093L280.203 244.301ZM264.037 235.777L273.718 235.873L273.397 268.417C273.389 269.31 273.518 270.009 273.786 270.511C274.054 270.999 274.429 271.343 274.912 271.545C275.41 271.747 275.985 271.851 276.636 271.858C277.091 271.862 277.546 271.829 278.001 271.757C278.456 271.671 278.806 271.606 279.048 271.563L280.5 278.782C280.014 278.929 279.33 279.097 278.45 279.285C277.569 279.488 276.499 279.607 275.241 279.64C272.907 279.708 270.865 279.377 269.115 278.648C267.379 277.918 266.034 276.799 265.079 275.289C264.124 273.78 263.666 271.881 263.704 269.594L264.037 235.777ZM305.077 244.546L305.006 251.818L283.984 251.611L284.056 244.339L305.077 244.546ZM288.91 236.022L298.592 236.118L298.271 268.662C298.262 269.555 298.392 270.254 298.66 270.756C298.928 271.244 299.303 271.588 299.786 271.79C300.284 271.992 300.859 272.096 301.51 272.103C301.965 272.107 302.42 272.074 302.875 272.002C303.33 271.916 303.679 271.851 303.922 271.808L305.374 279.027C304.888 279.174 304.204 279.342 303.323 279.53C302.443 279.733 301.373 279.852 300.115 279.885C297.781 279.953 295.739 279.622 293.988 278.893C292.253 278.163 290.908 277.044 289.953 275.534C288.998 274.025 288.54 272.126 288.577 269.839L288.91 236.022ZM326.567 280.35C322.976 280.315 319.892 279.557 317.316 278.077C314.755 276.582 312.79 274.487 311.423 271.791C310.056 269.081 309.39 265.885 309.426 262.203C309.462 258.612 310.19 255.468 311.61 252.769C313.031 250.071 315.014 247.977 317.559 246.487C320.119 244.997 323.111 244.269 326.535 244.302C328.838 244.325 330.978 244.717 332.956 245.479C334.948 246.226 336.68 247.342 338.15 248.826C339.636 250.31 340.784 252.17 341.596 254.406C342.407 256.626 342.798 259.221 342.769 262.19L342.743 264.849L313.267 264.559L313.326 258.559L333.689 258.76C333.702 257.366 333.411 256.128 332.816 255.047C332.221 253.965 331.388 253.116 330.318 252.499C329.264 251.867 328.032 251.545 326.623 251.531C325.153 251.516 323.847 251.844 322.704 252.515C321.576 253.171 320.689 254.063 320.041 255.193C319.394 256.308 319.056 257.555 319.027 258.934L318.971 264.638C318.954 266.365 319.257 267.861 319.881 269.124C320.52 270.388 321.427 271.367 322.603 272.06C323.778 272.754 325.176 273.109 326.797 273.125C327.873 273.135 328.859 272.993 329.756 272.699C330.653 272.405 331.422 271.958 332.064 271.358C332.707 270.758 333.199 270.021 333.541 269.145L342.489 269.824C342.013 271.971 341.063 273.841 339.638 275.433C338.229 277.01 336.414 278.235 334.193 279.107C331.987 279.964 329.445 280.378 326.567 280.35ZM348.913 279.888L349.257 244.981L358.643 245.073L358.583 251.164L358.946 251.167C359.604 249.007 360.688 247.381 362.199 246.29C363.71 245.184 365.443 244.64 367.397 244.659C367.882 244.664 368.405 244.7 368.965 244.766C369.525 244.832 370.016 244.92 370.439 245.03L370.355 253.621C369.901 253.48 369.274 253.353 368.472 253.239C367.67 253.125 366.936 253.064 366.269 253.058C364.845 253.044 363.569 253.342 362.442 253.952C361.33 254.547 360.443 255.387 359.781 256.471C359.134 257.556 358.803 258.81 358.789 260.234L358.594 279.984L348.913 279.888Z" fill="#FF0000"/>
</g>
<defs>
<linearGradient id="paint0_linear_194_134" x1="-5.53875" y1="-0.435697" x2="498.539" y2="512.624" gradientUnits="userSpaceOnUse">
<stop offset="0.00168333" stop-color="#FFFF00"/>
<stop offset="0.496184" stop-color="#FFFF00" stop-opacity="0"/>
</linearGradient>
<linearGradient id="paint1_linear_194_134" x1="1016.5" y1="0" x2="1016.5" y2="605" gradientUnits="userSpaceOnUse">
<stop stop-color="#FFFF00"/>
<stop offset="1" stop-color="#FFFF00" stop-opacity="0"/>
</linearGradient>
<clipPath id="clip0_194_134">
<rect width="512" height="512" fill="white" transform="translate(5.53418 0.490234) rotate(0.564359)"/>
</clipPath>
</defs>
</svg>
